<svg xmlns="http://www.w3.org/2000/svg" xmlns:xlink="http://www.w3.org/1999/xlink" version="1.1" id="Your_Icon" x="0px" y="0px" width="100px" height="100px" viewBox="0 0 100 100" enable-background="new 0 0 100 100" xml:space="preserve">
<path id="fairylight" d="M58.368,87.273v5.578c0,0.769-0.63,1.396-1.396,1.396H43.025c-0.766,0-1.393-0.627-1.393-1.396v-5.578  c0-0.766,0.627-1.394,1.393-1.394h13.948C57.738,85.88,58.368,86.508,58.368,87.273z M55.421,95.817H44.577  c-0.469,0-0.854,0.383-0.854,0.852v2.477c0,0.469,0.386,0.854,0.854,0.854h10.844c0.469,0,0.854-0.386,0.854-0.854v-2.477  C56.274,96.2,55.89,95.817,55.421,95.817z M51.632,31.049c0.494,0.617,12.083,15.275,12.083,30.13  c0,8.906-3.245,12.208-5.849,14.862c-1.797,1.83-2.987,3.041-2.987,5.942v2.091h-9.76v-2.091c0-2.901-1.19-4.112-2.984-5.942  c-2.607-2.654-5.852-5.956-5.852-14.862c0-14.855,11.588-29.513,12.083-30.13l1.633-2.039L51.632,31.049z M59.53,61.18  c0-10.223-6.43-20.776-9.529-25.268c-3.102,4.5-9.534,15.069-9.534,25.268c0,7.196,2.364,9.605,4.651,11.933  c1.638,1.669,3.461,3.523,4.013,6.783h1.734c0.555-3.26,2.375-5.114,4.013-6.783C57.165,70.785,59.53,68.376,59.53,61.18z   M49.929,24.271c1.572-0.007,2.939-15.861,2.953-18.852C52.887,2.431,52.897,0.018,50.022,0c-2.891-0.013-2.898,2.412-2.904,5.404  C47.108,8.383,48.322,24.252,49.929,24.271z M75.704,13.978c-1.57-1.453-2.797-0.132-4.305,1.501  c-1.513,1.633-8.83,10.966-7.969,11.773c0.873,0.802,9.612-7.216,11.12-8.852C76.059,16.763,77.285,15.44,75.704,13.978z   M36.832,27.057c0.849-0.823-6.674-9.987-8.227-11.586c-1.544-1.595-2.799-2.891-4.341-1.401c-1.55,1.498-0.294,2.792,1.258,4.388  C27.072,20.06,35.98,27.88,36.832,27.057z"/>
</svg>